<svg id="Layer_1" data-name="Layer 1" xmlns="http://www.w3.org/2000/svg" width="180" height="64.68" viewBox="0 0 180 64.68"><circle cx="6.47" cy="58.21" r="6.47" style="fill:#710a6b"/><path d="M21.41,44.91l-1.64-1.63a24.43,24.43,0,0,1-7-12.19l0-.09a6.54,6.54,0,0,0-5.47-5.07A6.47,6.47,0,0,0,.05,33.19a6.55,6.55,0,0,0,5.08,5.47l.09,0a24.38,24.38,0,0,1,12.18,7L19,47.28a24.44,24.44,0,0,1,7,12.18l0,.09a6.54,6.54,0,0,0,5.47,5.08,6.47,6.47,0,0,0,2.19-12.74l-.09,0A24.29,24.29,0,0,1,21.41,44.91Z" style="fill:#f2a900"/><path d="M34,21.07V17.76a9.85,9.85,0,0,1,3-6.83,6.45,6.45,0,0,0-9.12-9.12,9.92,9.92,0,0,1-6.83,3h-3.3a9.81,9.81,0,0,1-6.81-3A6.47,6.47,0,1,0,6.47,12.94a6.4,6.4,0,0,0,4.47-1.82,9.83,9.83,0,0,1,6.8-3h3.15A9.67,9.67,0,0,1,27.76,11l0,.05a9.66,9.66,0,0,1,2.85,6.87v3.14a9.84,9.84,0,0,1-3,6.81,6.46,6.46,0,1,0,11.12,4.47A6.35,6.35,0,0,0,37,27.87,9.82,9.82,0,0,1,34,21.07Z" style="fill:#50afc5"/><path d="M52.21,17.7H54.5a.49.49,0,0,0,.48-.47V10.87h2.76l3.32,6.61a.43.43,0,0,0,.4.22h2.62A.47.47,0,0,0,64.5,17l-3.41-6.33a5.52,5.52,0,0,0,3.69-5A5.4,5.4,0,0,0,59.34.25H52.21a.47.47,0,0,0-.47.47V17.23A.47.47,0,0,0,52.21,17.7ZM55,3.24h4.07a2.48,2.48,0,0,1,2.46,2.42A2.53,2.53,0,0,1,59.07,8.2H55Z" style="fill:#1a2e43"/><path d="M69.11,17.7H79.26a.47.47,0,0,0,.47-.47V15.18a.47.47,0,0,0-.47-.47H71.88V10.35H78a.47.47,0,0,0,.47-.48V7.8A.48.48,0,0,0,78,7.33H71.88V3.24h7.38a.47.47,0,0,0,.47-.47v-2a.47.47,0,0,0-.47-.47H69.11a.47.47,0,0,0-.47.47V17.23A.47.47,0,0,0,69.11,17.7Z" style="fill:#1a2e43"/><path d="M101.78,17.7H104a.76.76,0,0,0,.73-.5l1.22-2.69h7.45l1.23,2.69a.71.71,0,0,0,.72.5h2.17a.44.44,0,0,0,.42-.65L110.21.27a.41.41,0,0,0-.42-.27h-.25a.43.43,0,0,0-.42.27l-7.76,16.78A.44.44,0,0,0,101.78,17.7Zm7.78-11.44h.08l2.49,5.48h-5Z" style="fill:#1a2e43"/><path d="M121.25,17.7h9.13a.47.47,0,0,0,.47-.47V15.18a.47.47,0,0,0-.47-.47H124V.72a.49.49,0,0,0-.48-.47h-2.29a.47.47,0,0,0-.47.47V17.23A.47.47,0,0,0,121.25,17.7Z" style="fill:#1a2e43"/><path d="M61.46,41.07h2.62a.47.47,0,0,0,.42-.73L61.09,34a5.49,5.49,0,0,0,3.69-5,5.41,5.41,0,0,0-5.44-5.37H52.21a.48.48,0,0,0-.47.48v16.5a.48.48,0,0,0,.47.48H54.5a.5.5,0,0,0,.48-.48V34.24h2.76l3.32,6.6A.44.44,0,0,0,61.46,41.07Zm-2.39-9.5H55v-5h4.07A2.47,2.47,0,0,1,61.53,29,2.54,2.54,0,0,1,59.07,31.57Z" style="fill:#1a2e43"/><path d="M69.11,41.07H79.26a.48.48,0,0,0,.47-.48v-2a.47.47,0,0,0-.47-.47H71.88V33.71H78a.47.47,0,0,0,.47-.47V31.17A.48.48,0,0,0,78,30.7H71.88V26.61h7.38a.48.48,0,0,0,.47-.48v-2a.48.48,0,0,0-.47-.48H69.11a.48.48,0,0,0-.47.48v16.5A.48.48,0,0,0,69.11,41.07Z" style="fill:#1a2e43"/><path d="M88.4,38.45a8.14,8.14,0,0,1-3.76-1.55.58.58,0,0,0-.85.18l-.9,1.54c-.22.4-.1.53.13.75a8,8,0,0,0,5.48,2c3.52,0,5.74-2.37,5.74-4.94,0-3.22-2.79-4.66-5.21-5.64-2-.82-2.94-1.62-2.94-2.79a2,2,0,0,1,2.19-1.74,8.17,8.17,0,0,1,3.47,1.37.65.65,0,0,0,.87-.3l.95-1.42a.62.62,0,0,0-.15-.82,8.76,8.76,0,0,0-5-1.67c-4,0-5.61,2.56-5.61,4.78,0,2.94,2.34,4.44,4.69,5.39,2.09.84,3.16,1.72,3.16,3A2.08,2.08,0,0,1,88.4,38.45Z" style="fill:#1a2e43"/><path d="M98.05,24.09v16.5a.48.48,0,0,0,.47.48h10.15a.48.48,0,0,0,.47-.48v-2a.47.47,0,0,0-.47-.47h-7.38V33.71h6.16a.47.47,0,0,0,.47-.47V31.17a.48.48,0,0,0-.47-.47h-6.16V26.61h7.38a.48.48,0,0,0,.47-.48v-2a.48.48,0,0,0-.47-.48H98.52A.48.48,0,0,0,98.05,24.09Z" style="fill:#1a2e43"/><path d="M127.59,40.42l-7.68-16.78a.43.43,0,0,0-.43-.27h-.25a.45.45,0,0,0-.42.27l-7.75,16.78a.44.44,0,0,0,.42.65h2.17a.75.75,0,0,0,.72-.5l1.22-2.69h7.46l1.22,2.69a.72.72,0,0,0,.72.5h2.17A.44.44,0,0,0,127.59,40.42Zm-10.77-5.31,2.44-5.49h.07l2.5,5.49Z" style="fill:#1a2e43"/><path d="M143.51,29a5.4,5.4,0,0,0-5.43-5.37H131a.48.48,0,0,0-.48.48v16.5a.48.48,0,0,0,.48.48h2.29a.49.49,0,0,0,.47-.48V34.24h2.77l3.32,6.6a.43.43,0,0,0,.4.23h2.61a.48.48,0,0,0,.43-.73L139.82,34A5.49,5.49,0,0,0,143.51,29Zm-5.71,2.59h-4.06v-5h4.06A2.48,2.48,0,0,1,140.27,29,2.55,2.55,0,0,1,137.8,31.57Z" style="fill:#1a2e43"/><path d="M155.42,41.32a8.57,8.57,0,0,0,6.06-2.42.48.48,0,0,0,0-.68L160,36.63a.46.46,0,0,0-.62,0,6,6,0,0,1-3.82,1.42,5.79,5.79,0,0,1,0-11.57A5.93,5.93,0,0,1,159.34,28a.4.4,0,0,0,.62,0l1.52-1.57a.47.47,0,0,0,0-.7,8.46,8.46,0,0,0-6-2.31,9,9,0,1,0,0,18Z" style="fill:#1a2e43"/><path d="M179.53,23.61h-2.3a.48.48,0,0,0-.47.48V30.7h-8.13V24.09a.48.48,0,0,0-.47-.48h-2.32a.5.5,0,0,0-.48.48v16.5a.5.5,0,0,0,.48.48h2.32a.48.48,0,0,0,.47-.48V33.71h8.13v6.88a.48.48,0,0,0,.47.48h2.3a.49.49,0,0,0,.47-.48V24.09A.49.49,0,0,0,179.53,23.61Z" style="fill:#1a2e43"/><rect x="51.74" y="46.98" width="3.27" height="17.45" rx="0.47" style="fill:#1a2e43"/><path d="M83.87,54.11c-2-.82-2.94-1.62-2.94-2.79a2,2,0,0,1,2.19-1.75,8.3,8.3,0,0,1,3.47,1.37.65.65,0,0,0,.87-.3l1-1.42a.62.62,0,0,0-.15-.82,8.84,8.84,0,0,0-5-1.67c-4,0-5.61,2.57-5.61,4.79,0,2.94,2.34,4.44,4.69,5.38,2.09.85,3.16,1.72,3.16,3a2.07,2.07,0,0,1-2.26,1.91c-1.63,0-3.65-1.47-3.77-1.54a.57.57,0,0,0-.85.17L77.73,62c-.22.4-.1.52.13.75a8,8,0,0,0,5.48,1.94c3.52,0,5.74-2.37,5.74-4.93C89.08,56.53,86.29,55.08,83.87,54.11Z" style="fill:#1a2e43"/><path d="M102.31,47H91.42a.47.47,0,0,0-.48.47v2a.47.47,0,0,0,.48.47h3.81V64a.49.49,0,0,0,.48.47H98A.49.49,0,0,0,98.5,64V50h3.81a.47.47,0,0,0,.48-.47v-2A.47.47,0,0,0,102.31,47Z" style="fill:#1a2e43"/><rect x="106" y="46.98" width="3.27" height="17.45" rx="0.47" style="fill:#1a2e43"/><path d="M123.85,47H113a.47.47,0,0,0-.47.47v2A.47.47,0,0,0,113,50h3.82V64a.48.48,0,0,0,.47.47h2.32A.48.48,0,0,0,120,64V50h3.82a.47.47,0,0,0,.47-.47v-2A.47.47,0,0,0,123.85,47Z" style="fill:#1a2e43"/><path d="M140.7,47h-2.37a.47.47,0,0,0-.48.47V57.68a3.63,3.63,0,1,1-7.25,0V47.45a.47.47,0,0,0-.48-.47h-2.37a.49.49,0,0,0-.47.47V57.82a6.95,6.95,0,0,0,13.89,0V47.45A.49.49,0,0,0,140.7,47Z" style="fill:#1a2e43"/><path d="M155.5,47H144.6a.47.47,0,0,0-.47.47v2a.47.47,0,0,0,.47.47h3.82V64a.48.48,0,0,0,.47.47h2.32a.48.48,0,0,0,.47-.47V50h3.82a.47.47,0,0,0,.47-.47v-2A.47.47,0,0,0,155.5,47Z" style="fill:#1a2e43"/><path d="M169.8,47H159.66a.47.47,0,0,0-.48.47V64a.47.47,0,0,0,.48.47H169.8a.47.47,0,0,0,.48-.47v-2a.48.48,0,0,0-.48-.48h-7.37V57.08h6.15a.48.48,0,0,0,.48-.48V54.53a.49.49,0,0,0-.48-.47h-6.15V50h7.37a.47.47,0,0,0,.48-.47v-2A.47.47,0,0,0,169.8,47Z" style="fill:#1a2e43"/><path d="M73.46,47h-2.3a.47.47,0,0,0-.47.47V57.79h0l-10-10.69a.36.36,0,0,0-.27-.12h-.78a.37.37,0,0,0-.37.37V64a.46.46,0,0,0,.39.46H62a.46.46,0,0,0,.4-.45V53.56h0L72.51,64.31a.36.36,0,0,0,.27.12h.78a.36.36,0,0,0,.37-.37V47.47A.47.47,0,0,0,73.46,47Z" style="fill:#1a2e43"/><path d="M84.14,17.69h2.42a.48.48,0,0,0,.4-.46V6.81h0L97.05,17.56a.37.37,0,0,0,.28.13h.78a.38.38,0,0,0,.37-.37V.72A.48.48,0,0,0,98,.25H95.71a.46.46,0,0,0-.47.47V11.05h0L85.17.35A.36.36,0,0,0,84.9.23h-.79a.38.38,0,0,0-.37.37V17.23A.48.48,0,0,0,84.14,17.69Z" style="fill:#1a2e43"/></svg>